<?xml version="1.0" standalone="no"?>
<!DOCTYPE svg PUBLIC "-//W3C//DTD SVG 20010904//EN"
 "http://www.w3.org/TR/2001/REC-SVG-20010904/DTD/svg10.dtd">
<svg version="1.0" xmlns="http://www.w3.org/2000/svg"
 width="1115.000000pt" height="1115.000000pt" viewBox="0 0 1115.000000 1115.000000"
 preserveAspectRatio="xMidYMid meet">
<metadata>
Created by potrace 1.14, written by Peter Selinger 2001-2017
</metadata>
<g transform="translate(0.000000,1115.000000) scale(0.100000,-0.100000)"
fill="#000000" stroke="none">
<path d="M5407 11053 c-3 -2 -15 -5 -28 -7 -57 -7 -109 -19 -109 -26 0 -3 -6
-7 -13 -7 -41 0 -181 -86 -248 -152 -61 -61 -130 -122 -209 -185 -47 -38 -95
-77 -108 -87 -12 -10 -25 -19 -28 -19 -4 0 -23 -14 -43 -30 -51 -43 -50 -43
-129 -95 -40 -26 -72 -52 -72 -57 0 -5 -4 -7 -9 -3 -6 3 -14 -3 -20 -12 -5
-10 -13 -18 -18 -17 -14 1 -73 -37 -73 -48 0 -5 -4 -6 -10 -3 -5 3 -10 1 -10
-5 0 -6 -4 -9 -9 -6 -5 3 -14 -1 -21 -9 -7 -8 -19 -15 -26 -15 -8 0 -14 -4
-14 -8 0 -5 -12 -15 -27 -23 -16 -7 -43 -24 -60 -37 -18 -14 -33 -20 -33 -16
0 5 -4 4 -8 -1 -4 -6 -33 -24 -64 -40 -32 -15 -58 -32 -58 -37 0 -4 -3 -7 -7
-6 -5 1 -72 -30 -149 -68 -78 -38 -145 -70 -150 -71 -34 -10 -170 -59 -174
-63 -3 -3 -12 -6 -20 -7 -8 -1 -69 -16 -135 -33 -66 -17 -131 -32 -144 -35
-14 -2 -47 -9 -75 -14 -77 -16 -108 -21 -141 -26 -16 -3 -46 -7 -65 -11 -52
-9 -131 -18 -262 -29 -29 -3 -80 -8 -113 -11 -214 -20 -380 -26 -820 -29 -428
-2 -479 -7 -582 -46 -16 -6 -29 -9 -29 -7 -1 2 -11 -6 -23 -16 -12 -11 -21
-16 -21 -12 0 6 -79 -42 -90 -55 -3 -3 -13 -8 -23 -12 -11 -4 -15 -12 -11 -18
4 -7 3 -9 -3 -6 -5 3 -36 -21 -68 -54 -32 -32 -55 -59 -52 -59 3 0 -7 -15 -24
-32 -27 -30 -30 -37 -28 -54 0 -4 -3 -10 -8 -13 -9 -6 -43 -74 -48 -95 -1 -6
-5 -18 -8 -26 -21 -55 -24 -225 -21 -1219 2 -1013 5 -1186 18 -1381 3 -41 8
-111 10 -155 3 -44 8 -107 12 -140 3 -33 8 -80 9 -105 2 -25 4 -45 5 -45 1 0
3 -22 5 -50 2 -27 6 -66 9 -85 2 -19 8 -66 12 -105 3 -38 8 -73 10 -77 3 -4 7
-33 10 -65 3 -32 7 -69 10 -83 3 -14 7 -38 9 -55 2 -16 6 -45 9 -62 13 -69 18
-99 21 -123 2 -14 11 -63 20 -110 9 -47 18 -98 21 -115 3 -16 10 -48 15 -70 5
-22 12 -51 14 -65 2 -14 11 -56 20 -95 9 -38 18 -83 21 -100 3 -16 10 -35 15
-41 5 -6 7 -13 4 -15 -2 -3 5 -38 16 -79 29 -110 29 -108 33 -129 3 -11 9 -28
14 -38 5 -10 7 -24 5 -31 -3 -7 -1 -18 5 -25 5 -7 15 -37 22 -67 7 -30 15 -59
19 -65 3 -5 7 -16 8 -22 7 -30 10 -41 28 -93 11 -30 20 -58 21 -62 1 -5 3 -11
4 -15 1 -5 2 -11 1 -15 0 -5 3 -8 8 -8 5 0 8 -6 8 -13 -2 -20 46 -157 56 -157
4 0 6 -4 2 -10 -3 -5 -1 -17 4 -27 5 -10 22 -52 37 -93 15 -41 33 -86 41 -100
7 -14 13 -33 13 -42 0 -9 5 -20 10 -23 6 -3 10 -15 10 -26 0 -10 5 -19 10 -19
6 0 10 -9 10 -20 0 -11 4 -20 8 -20 4 0 8 -10 9 -22 1 -11 7 -24 13 -28 7 -4
11 -9 9 -11 -5 -9 26 -79 35 -79 5 0 7 -3 3 -6 -3 -4 4 -25 15 -48 12 -22 21
-44 20 -48 -1 -5 3 -8 9 -8 5 0 7 -5 4 -10 -3 -5 -1 -10 5 -10 6 0 9 -4 5 -9
-3 -5 2 -17 11 -25 8 -9 13 -16 10 -16 -5 0 39 -88 131 -260 67 -125 85 -155
97 -162 6 -4 7 -8 3 -8 -4 0 6 -20 23 -44 16 -25 30 -49 30 -55 0 -6 5 -11 10
-11 6 0 10 -4 10 -10 0 -11 122 -201 144 -222 8 -9 12 -18 9 -22 -3 -3 2 -8
11 -12 9 -3 14 -10 11 -14 -2 -4 7 -20 20 -34 14 -15 25 -29 25 -32 0 -3 6
-11 13 -19 6 -7 23 -28 37 -46 14 -18 31 -38 38 -45 6 -7 12 -15 12 -19 0 -3
15 -21 34 -40 19 -18 31 -36 28 -39 -3 -3 0 -6 6 -6 6 0 14 -9 17 -20 3 -11
13 -20 21 -20 8 0 14 -7 14 -15 0 -8 5 -15 10 -15 6 0 10 -6 10 -14 0 -8 3
-16 8 -18 4 -1 34 -36 67 -75 32 -40 63 -73 67 -73 4 0 7 -6 6 -12 -2 -7 3
-12 10 -10 6 1 11 -1 10 -6 -3 -8 -1 -11 69 -92 59 -67 279 -290 286 -290 3 0
28 -21 55 -47 87 -84 141 -133 146 -133 3 0 18 -11 33 -25 73 -66 98 -85 109
-85 7 0 14 -4 16 -9 3 -9 87 -77 138 -111 12 -8 36 -27 53 -42 17 -14 35 -24
39 -22 4 3 8 1 8 -4 0 -12 111 -88 123 -84 4 1 7 -2 7 -7 0 -10 151 -107 163
-103 4 1 7 -3 7 -9 0 -5 13 -15 30 -20 17 -6 30 -14 30 -18 0 -8 55 -36 55
-29 0 1 10 -6 22 -17 12 -11 48 -33 80 -50 32 -16 60 -33 63 -36 8 -11 90 -50
90 -43 0 3 7 -2 16 -10 8 -9 20 -14 25 -11 5 4 9 2 9 -4 0 -9 26 -21 44 -20 5
0 12 -3 15 -8 7 -11 165 -85 178 -84 2 0 24 -10 50 -24 26 -13 51 -21 55 -19
4 3 8 0 8 -5 0 -6 3 -10 8 -9 4 0 14 -2 22 -5 31 -13 75 -30 80 -31 3 -1 10
-4 15 -7 16 -10 89 -33 98 -31 4 1 7 -2 7 -8 0 -5 6 -10 14 -10 7 0 31 -8 52
-17 22 -9 44 -18 49 -19 6 -1 27 -9 48 -18 20 -9 37 -13 37 -10 0 4 6 2 13 -4
13 -10 156 -58 220 -73 20 -5 56 -14 80 -19 23 -6 56 -12 72 -15 17 -2 41 -7
55 -10 43 -10 152 -19 235 -19 70 0 101 3 200 19 11 1 47 10 80 20 33 9 69 18
80 19 11 2 20 4 20 5 0 2 7 4 15 6 8 1 35 8 60 16 25 7 50 13 55 14 6 2 53 17
105 35 52 17 102 33 111 35 8 2 33 11 55 21 21 9 43 16 47 15 5 -1 25 6 45 15
20 9 46 20 57 24 11 4 36 15 57 24 20 9 38 16 41 16 3 0 44 18 91 40 47 22 90
40 96 40 5 0 10 5 10 10 0 6 4 9 8 8 10 -4 116 45 120 55 2 4 7 5 12 2 5 -3
14 0 22 7 7 7 20 14 28 16 8 2 18 9 22 15 4 7 8 8 8 3 0 -5 6 -4 13 1 6 6 53
32 102 58 50 26 93 52 96 57 3 5 9 9 13 9 17 -2 24 1 44 19 12 12 22 18 22 15
0 -3 20 8 44 25 25 16 49 30 55 30 6 0 11 5 11 10 0 6 7 10 15 10 7 0 19 8 24
17 6 10 11 14 11 10 0 -5 13 1 29 12 16 12 34 21 41 21 6 0 9 4 6 9 -3 5 4 11
17 15 12 3 31 13 43 23 31 28 114 83 124 83 6 0 10 5 10 10 0 6 8 14 18 17 9
4 27 17 40 30 12 13 22 21 22 18 0 -8 170 122 186 142 6 7 15 13 20 13 5 0 25
15 44 33 19 17 55 50 80 71 218 190 404 369 393 379 -3 4 1 7 10 7 10 0 26 15
37 32 11 18 20 29 20 24 0 -5 9 3 20 17 11 14 20 30 20 37 0 6 5 8 10 5 6 -3
10 -2 10 2 0 5 25 36 55 68 30 33 57 68 60 78 4 9 10 17 15 17 7 0 57 59 147
175 9 11 25 31 37 44 12 14 15 21 6 17 -8 -4 -6 1 6 11 29 26 99 123 96 134
-1 5 1 9 6 9 8 0 92 112 90 120 -1 3 10 18 25 34 15 16 24 32 21 37 -3 5 -1 9
3 9 5 0 19 20 33 45 14 25 28 45 32 45 5 0 8 5 8 10 0 6 16 35 35 65 19 30 33
55 30 55 -3 0 2 8 10 18 8 9 16 22 17 27 1 6 8 16 15 23 7 8 10 18 7 24 -4 6
-2 8 4 4 6 -3 14 4 17 16 4 13 20 45 36 71 16 26 30 53 32 60 1 6 8 18 15 25
7 8 10 17 7 22 -3 5 -1 10 4 12 5 1 29 44 54 93 61 123 147 303 147 309 0 2
13 33 29 68 16 35 33 75 36 91 4 15 12 27 18 27 6 0 7 3 4 7 -4 3 0 17 8 30 9
13 13 23 11 23 -3 0 8 32 24 70 16 39 27 70 24 70 -2 0 3 11 12 25 9 14 13 25
9 25 -4 0 -3 6 3 13 6 6 11 17 12 22 2 6 4 15 6 20 47 135 116 355 129 410 1
6 5 17 8 25 8 19 29 100 32 120 1 8 5 22 8 30 10 27 45 164 51 201 3 20 10 49
16 65 6 16 11 30 11 32 -1 1 -1 3 0 5 0 1 2 11 4 22 1 11 5 31 8 45 16 69 54
258 62 310 3 19 8 42 10 50 5 18 45 271 51 320 2 19 6 46 8 60 3 14 8 48 11
75 3 28 8 70 11 95 3 25 7 61 9 80 3 32 7 76 20 205 8 74 14 150 19 245 3 47
8 126 11 175 4 50 8 135 11 190 10 175 11 2258 2 2295 -21 85 -41 140 -50 140
-5 0 -6 5 -3 10 4 6 -5 26 -19 45 -14 18 -26 37 -26 42 0 9 -51 68 -113 131
-46 48 -143 115 -164 115 -7 0 -13 4 -13 8 0 4 -12 10 -27 15 -33 9 -34 9 -53
17 -80 33 -168 39 -565 42 -378 3 -810 17 -810 25 0 1 -25 3 -55 5 -62 4 -120
11 -235 26 -44 6 -96 13 -115 15 -38 5 -52 8 -90 17 -14 4 -42 9 -64 12 -21 3
-41 7 -45 9 -3 2 -22 7 -41 10 -45 7 -180 43 -234 61 -22 8 -51 15 -63 15 -13
0 -23 5 -23 10 0 6 -11 10 -24 10 -14 0 -27 4 -30 9 -5 8 -64 25 -78 22 -5 0
-8 3 -8 9 0 5 -5 10 -11 10 -13 0 -45 14 -189 83 -58 28 -117 58 -131 68 -14
10 -32 19 -39 21 -8 2 -23 11 -34 20 -10 10 -23 15 -28 12 -4 -3 -8 -1 -8 4 0
5 -12 15 -27 23 -16 7 -42 24 -59 36 -17 13 -36 23 -42 23 -7 0 -12 4 -12 8 0
5 -12 15 -27 23 -16 7 -56 33 -89 56 -34 23 -64 39 -68 36 -3 -4 -6 -2 -6 4 0
6 -19 23 -42 39 -24 16 -46 33 -50 39 -4 5 -8 6 -8 1 0 -5 -8 1 -19 12 -10 12
-23 22 -30 22 -6 0 -11 5 -11 10 0 6 -5 10 -10 10 -6 0 -16 5 -23 10 -56 48
-72 58 -80 53 -6 -3 -8 -2 -5 3 4 5 -17 25 -45 44 -29 19 -61 43 -72 53 -11
10 -36 28 -55 40 -19 11 -42 28 -50 36 -21 22 -98 81 -105 81 -3 0 -15 9 -27
20 -12 11 -34 26 -50 32 -15 7 -28 17 -28 21 0 5 -4 5 -10 2 -5 -3 -10 -2 -10
3 0 10 -60 38 -72 34 -5 -1 -8 2 -8 7 0 6 -71 40 -100 47 -3 0 -12 4 -20 7
-52 21 -159 40 -242 42 -53 2 -99 1 -101 -2z"/>
</g>
</svg>
